<svg id="Artwork" xmlns="http://www.w3.org/2000/svg" viewBox="0 0 109.524 72"><defs><style>.cls-1{fill:#fff;}</style></defs><title>Artboard 135</title><rect class="cls-1" x="4.50052" y="61.17982" width="105.02344" height="3.63013"/><rect class="cls-1" x="4.50052" y="68.36976" width="105.02344" height="3.63013"/><polygon class="cls-1" points="9.264 3.705 9.264 16.469 5.147 16.469 5.147 3.705 0 3.705 0 0 14.41 0 14.41 3.705 9.264 3.705"/><polygon class="cls-1" points="30.551 10.19 19.744 10.19 19.744 16.469 15.626 16.469 15.626 0 19.744 0 19.744 6.279 30.551 6.279 30.551 0 34.668 0 34.668 16.469 30.551 16.469 30.551 10.19"/><polygon class="cls-1" points="36.564 16.469 36.564 0 48.278 0 48.278 3.705 40.682 3.705 40.682 6.485 46.837 6.485 46.837 9.984 40.682 9.984 40.682 12.764 48.278 12.764 48.278 16.469 36.564 16.469"/><polygon class="cls-1" points="9.242 26.517 8.624 26.517 8.624 37.058 4.507 37.058 4.507 20.589 9.324 20.589 18.918 30.881 19.535 30.881 19.535 20.589 23.652 20.589 23.652 37.058 19 37.058 9.242 26.517"/><polygon class="cls-1" points="25.548 37.058 25.548 20.589 37.262 20.589 37.262 24.294 29.666 24.294 29.666 27.073 35.821 27.073 35.821 30.573 29.666 30.573 29.666 33.352 37.262 33.352 37.262 37.058 25.548 37.058"/><polygon class="cls-1" points="37.633 20.589 42.224 20.589 45.786 33.702 46.753 33.702 50.006 20.589 57.746 20.589 61.472 33.702 62.44 33.702 65.528 20.589 70.201 20.589 65.651 37.058 58.323 37.058 54.535 23.944 53.382 23.944 49.923 37.058 42.595 37.058 37.633 20.589"/><path class="cls-1" d="M3.57914,46.1996c0-3.479,2.77929-5.3523,6.36133-5.3523a12.63925,12.63925,0,0,1,5.66113,1.27612l-.78223,3.49976a10.68688,10.68688,0,0,0-5.02295-1.25561c-1.27636,0-2.14111.49414-2.14111,1.35839,0,2.67627,8.44043,1.17359,8.44043,6.71143,0,2.9436-2.09961,5.5376-6.48486,5.5376a13.82736,13.82736,0,0,1-5.70215-1.05l.16455-3.76734a12.85746,12.85746,0,0,0,5.66113,1.29688c1.812,0,2.26465-.63818,2.26465-1.39966C11.99906,50.58461,3.57914,52.02552,3.57914,46.1996Z"/><path class="cls-1" d="M29.74564,57.41908a11.15086,11.15086,0,0,1-4.28174.55591,8.46092,8.46092,0,0,1-8.58447-8.58448c0-4.67309,3.60205-8.5227,8.95459-8.5227a13.45308,13.45308,0,0,1,4.1792.47339l-.39111,3.74658a10.60235,10.60235,0,0,0-3.66455-.53491c-3.04639,0-4.8379,1.791-4.8379,4.83764,0,3.06739,2.03858,4.81714,4.94092,4.81714a9.24618,9.24618,0,0,0,3.68506-.59716Z"/><polygon class="cls-1" points="46.566 51.367 35.758 51.367 35.758 57.645 31.641 57.645 31.641 41.177 35.758 41.177 35.758 47.455 46.566 47.455 46.566 41.177 50.683 41.177 50.683 57.645 46.566 57.645 46.566 51.367"/><path class="cls-1" d="M61.51322,40.8473c5.66113,0,9.7373,2.9231,9.7373,8.4812,0,5.78492-4.40527,8.64649-9.75781,8.64649-5.39355,0-9.79931-2.90259-9.79931-8.62573C51.6934,43.9557,55.708,40.8473,61.51322,40.8473ZM61.4517,54.51649c3.23193,0,5.5581-1.647,5.5581-5.27,0-3.29394-2.32617-4.94067-5.5376-4.94067s-5.53759,1.60547-5.53759,5.064C55.93461,52.849,58.26078,54.51649,61.4517,54.51649Z"/><path class="cls-1" d="M81.79252,40.8473c5.66113,0,9.7373,2.9231,9.7373,8.4812,0,5.78492-4.40527,8.64649-9.75781,8.64649-5.39356,0-9.79932-2.90259-9.79932-8.62573C71.97269,43.9557,75.98734,40.8473,81.79252,40.8473ZM81.731,54.51649c3.23194,0,5.55811-1.647,5.55811-5.27,0-3.29394-2.32617-4.94067-5.5376-4.94067s-5.53809,1.60547-5.53809,5.064C76.21341,52.849,78.54007,54.51649,81.731,54.51649Z"/><polygon class="cls-1" points="92.664 41.177 96.781 41.177 96.781 53.734 109.524 53.734 109.524 57.645 92.664 57.645 92.664 41.177"/></svg>